<svg width="24" height="24" viewBox="0 0 24 24" fill="none" xmlns="http://www.w3.org/2000/svg">
<path d="M13.8947 0H10.1053V10.1053H0V13.8947H10.1053V24H13.8947V13.8947H24V10.1053H13.8947V0Z" fill="#FF4B55"/>
<path d="M6.48722 15.1579L0.0339355 19.3469C0.0852168 19.7998 0.193967 20.2353 0.353014 20.6458L8.80734 15.1579H6.48722V15.1579Z" fill="#FF4B55"/>
<path d="M16.1467 15.1579L23.8148 20.1354C23.9352 19.694 23.9999 19.2296 23.9999 18.75V18.7495L18.4669 15.1579L16.1467 15.1579Z" fill="#FF4B55"/>
<path d="M7.57894 8.84215L0.145969 4.01721C0.0507656 4.41265 0 4.82538 0 5.25002V5.42848L5.25881 8.84215H7.57894Z" fill="#FF4B55"/>
<path d="M17.478 8.84215L23.9637 4.63212C23.9106 4.18006 23.8005 3.74553 23.6401 3.33612L15.158 8.84215H17.478Z" fill="#FF4B55"/>
</svg>
