<svg width="24" height="24" viewBox="0 0 24 24" fill="none" xmlns="http://www.w3.org/2000/svg">
<g clip-path="url(#clip0_2020_82067)">
<path d="M18.75 0H5.25C2.3505 0 0 2.3505 0 5.25V8.00002H24V5.25C24 2.3505 21.6495 0 18.75 0Z" fill="#0099B5"/>
<path d="M0 18.75C0 21.6495 2.3505 24 5.25 24H18.75C21.6495 24 24 21.6495 24 18.75V16H0V18.75Z" fill="#73AF00"/>
<path d="M24 8.00015H0V16.0003H24V8.00015Z" fill="#E9D656"/>
<path d="M24 7.28954H0V7.82232H24V7.28954Z" fill="#FF4B55"/>
<path d="M24.252 15.679H0.251953V16.2118H24.252V15.679Z" fill="white"/>
<path d="M24 7.82233H0V8.35511H24V7.82233Z" fill="white"/>
<path d="M24.252 16.2118H0.251953V16.7446H24.252V16.2118Z" fill="#FF4B55"/>
</g>
<defs>
<clipPath id="clip0_2020_82067">
<rect width="24" height="24" rx="12" fill="white"/>
</clipPath>
</defs>
</svg>
