<svg width="28" height="28" viewBox="0 0 28 28" fill="none" xmlns="http://www.w3.org/2000/svg">
<rect width="28" height="28" rx="6" fill="#FF831B"/>
<rect x="0.5" y="0.5" width="27" height="27" rx="5.5" stroke="white" stroke-opacity="0.36"/>
<path d="M14 11.5V14.8333M14 18.1667H14.0083M12.5333 7.2975L5.51498 19.0142C5.37037 19.2648 5.29388 19.5488 5.2931 19.8381C5.29232 20.1275 5.36728 20.4119 5.51053 20.6633C5.65378 20.9147 5.86033 21.1241 6.10964 21.2709C6.35895 21.4177 6.64235 21.4967 6.93164 21.5H20.9691C21.2584 21.4967 21.5418 21.4177 21.7911 21.2709C22.0405 21.1241 22.247 20.9147 22.3903 20.6633C22.5335 20.4119 22.6085 20.1275 22.6077 19.8381C22.6069 19.5488 22.5304 19.2648 22.3858 19.0142L15.3666 7.2975C15.2188 7.05416 15.0109 6.85299 14.7627 6.71339C14.5146 6.57378 14.2347 6.50044 13.95 6.50044C13.6653 6.50044 13.3854 6.57378 13.1372 6.71339C12.8891 6.85299 12.6811 7.05416 12.5333 7.2975Z" stroke="white" stroke-width="1.6" stroke-linecap="round" stroke-linejoin="round"/>
</svg>
